<svg id="Warstwa_1" data-name="Warstwa 1" xmlns="http://www.w3.org/2000/svg" xmlns:xlink="http://www.w3.org/1999/xlink" viewBox="0 0 985.76 595.06"><defs><style>.cls-1{fill:none;stroke:#000;stroke-miterlimit:10;stroke-width:15px;}.cls-2{fill:url(#Gradient_bez_nazwy_65);}.cls-3{fill:url(#Gradient_bez_nazwy_65-2);}</style><linearGradient id="Gradient_bez_nazwy_65" x1="253.55" y1="799.57" x2="228.9" y2="486.13" gradientUnits="userSpaceOnUse"><stop offset="0" stop-color="#fff" stop-opacity="0"/><stop offset="1"/></linearGradient><linearGradient id="Gradient_bez_nazwy_65-2" x1="574.01" y1="799.57" x2="549.36" y2="486.13" gradientTransform="matrix(-1, 0, 0, 1, 1320.46, 0)" xlink:href="#Gradient_bez_nazwy_65"/></defs><path class="cls-1" d="M629.15,205.36C556.66,158.45,505.61,238.84,500,248.2c-5.61-9.36-56.66-89.75-129.15-42.84-76.91,49.76-73.89,146.27,15.07,229.2,78.9,73.54,108,124.55,113.56,135.16l.52,1,.52-1c5.58-10.61,34.66-61.62,113.56-135.16C703,351.63,706.06,255.12,629.15,205.36Z" transform="translate(-7.12 -183.27)"/><path class="cls-2" d="M460.73,770.19,457.15,745c-1.14-8.37-2.21-16.59-2.61-24.74s-.37-16.6-.37-25.08l.05-25.49a114,114,0,0,0-2.62-24,115.74,115.74,0,0,0-7.7-22.69c-6.58-14.42-15-27.46-24-39.85s-18.64-24.15-28.4-35.75l-7.37-8.66-7.47-8.6-7.27-8.4-1.79-2.07c-.58-.71-1.13-1.44-1.7-2.16l-3.39-4.33a432.9,432.9,0,0,1-24.89-36.76c-7.79-12.7-15.15-25.69-22.25-38.85-3.57-6.57-7-13.22-10.46-19.87l-5.11-10-2.59-5.08-1.29-2.43c-.48-.92-.93-1.84-1.48-2.78a48,48,0,0,0-3.61-5.54,31.82,31.82,0,0,0-4.94-5.25,22.28,22.28,0,0,0-7.09-4.08,18.61,18.61,0,0,0-8.9-.82,19.72,19.72,0,0,0-8.16,3.22l-.51.37-.31.23-.33.28-.11.1-.86.84a20,20,0,0,0-1.44,1.67,20.24,20.24,0,0,0-2.23,3.61,25.42,25.42,0,0,0-2.25,7.44,34.88,34.88,0,0,0-.36,5.52l-.1.3-.51,1.64c-.34,1.09-.58,2.14-.87,3.22-.49,2.13-.93,4.26-1.23,6.39l-.25,1.6-.18,1.59-.33,3.2c-.1,2.12-.27,4.25-.27,6.37a108.67,108.67,0,0,0,2.71,25.11c.18,1,.49,2,.75,3.05l.82,3c.28,1,.53,2,.83,3l1,3c.7,2,1.3,4,2.08,5.89l1.74,4.15c-4.44-2.66-8.82-5.31-12.92-8.05l-2-1.35-1.82-1.35-1.49-1.26-.35-.35-.12-.28c-.1-.24-.22-.6-.34-.91-.24-.68-.48-1.4-.71-2.16-.47-1.52-.92-3.12-1.37-4.73-1.77-6.49-3.46-13.19-5.25-19.86-3.59-13.36-7.39-26.78-12.6-40-1.31-3.31-2.72-6.62-4.31-9.9a88,88,0,0,0-5.43-9.79,53.17,53.17,0,0,0-3.48-4.79,36.44,36.44,0,0,0-4.42-4.59,24.12,24.12,0,0,0-6.12-3.89,18.5,18.5,0,0,0-8.11-1.54h0l-5,.13-1.31,4.59a40.34,40.34,0,0,0-1.47,7.64l-.18,1.81c0,.6-.06,1.18-.1,1.77l-.08,1.77,0,1.73c0,4.61.19,9.08.59,13.5s.9,8.78,1.5,13.11,1.27,8.63,2,12.92q1.55,8.91,3.31,17.74c-.93-2.07-1.86-4.16-2.76-6.26-1.34-3.12-2.69-6.23-4-9.39s-2.63-6.27-3.89-9.44c-2.52-6.07-5-12.15-7.62-18.19-1.27-6.27-2.69-12.52-4.45-18.75a135.28,135.28,0,0,0-6.87-19.3c-2.92-6.33-6.36-12.72-12.05-18.38-.69-.7-1.51-1.36-2.27-2a30.75,30.75,0,0,0-2.57-1.87,24.38,24.38,0,0,0-6.09-2.94,21.18,21.18,0,0,0-7.2-1,18.64,18.64,0,0,0-3.76.49,17.53,17.53,0,0,0-1.9.54c-.34.12-.65.23-1,.38l-.53.24-.32.15-.17.09-.3.16-3.42,1.86-.16,4,0,.57c-.82-1.44-1.66-2.89-2.54-4.32a101.58,101.58,0,0,0-6.74-9.79,67.58,67.58,0,0,0-8.42-9.09,44.2,44.2,0,0,0-11-7.27,36.14,36.14,0,0,0-13.38-3.17,44.72,44.72,0,0,0-6.68.25,62,62,0,0,0-6.29,1.13l-3.69.85-1.26,3.26a22.09,22.09,0,0,0-.8,2.51c-.11.63-.21,1.27-.29,1.91s-.08,1.09-.11,1.64l0,.79v.73l0,1.42c0,.47.06.89.08,1.34l.11,1.33.14,1.27c.4,3.39,1,6.57,1.58,9.73,1.26,6.29,2.77,12.39,4.36,18.45.65,2.45,1.32,4.88,2,7.32-2.87-2.67-5.81-5.29-8.89-7.82-2.76-2.26-5.62-4.46-8.68-6.53a65.53,65.53,0,0,0-10-5.68,37.27,37.27,0,0,0-6-2.09,27.13,27.13,0,0,0-3.39-.65,22.13,22.13,0,0,0-3.76-.14,18.67,18.67,0,0,0-8,2.07A20.52,20.52,0,0,0,8.73,344l-1.58,1.94,0,2.53a74,74,0,0,0,2.18,18A116.54,116.54,0,0,0,14.67,383a212.39,212.39,0,0,0,15.41,30c11.65,19,25.07,36.58,39.19,53.43s29.1,32.91,44.64,48.39q11.67,11.61,23.86,22.71c4.08,3.69,8.2,7.34,12.42,10.92s8.5,7.1,13.09,10.51c1.15.85,2.32,1.7,3.56,2.54s2.53,1.67,4.06,2.53l2,1a15.18,15.18,0,0,1,1.39.77c1,.55,1.92,1.23,2.9,1.9a117.18,117.18,0,0,1,11.64,9.88c7.62,7.25,14.94,15.15,22.18,23.13,14.48,16,28.59,32.55,43.2,48.8q5.47,6.11,11.08,12.13l1.4,1.51.7.75.64.73,2.53,2.91,2.54,2.91c.85,1,1.58,2,2.38,3.06l2.35,3.1,1.18,1.54c.38.53.73,1.08,1.1,1.62l4.34,6.5,4,6.74c1.33,2.25,2.51,4.61,3.78,6.91a254.85,254.85,0,0,1,12.83,28.95c.46,1.24.94,2.48,1.38,3.73l1.29,3.76c.89,2.49,1.65,5,2.46,7.55s1.54,5.07,2.22,7.61c.36,1.27.7,2.54,1,3.81l.48,1.89.43,1.81.13.56.14.38,4.75,13.06,1.71,4.69,5,0,10,0-7.82-22.18-.05-.13-.37-1.61-.52-2.06c-.34-1.37-.7-2.73-1.07-4.07-.73-2.71-1.54-5.37-2.34-8s-1.65-5.33-2.58-8l-1.36-4c-.46-1.32-1-2.62-1.44-3.92A267.3,267.3,0,0,0,305,693.26c-1.35-2.47-2.6-5-4-7.4l-4.33-7.25-4.71-7.06c-.39-.59-.77-1.18-1.19-1.76l-1.29-1.7-2.57-3.4c-.88-1.12-1.69-2.28-2.62-3.37l-2.81-3.24-2.82-3.23-.71-.81-.68-.74-1.38-1.47q-5.49-5.93-10.89-12c-14.44-16.09-28.53-32.63-43.2-48.89-7.35-8.12-14.8-16.19-22.93-23.94a132.32,132.32,0,0,0-13.2-11.19c-1.26-.87-2.51-1.74-3.92-2.56-.66-.42-1.41-.82-2.17-1.21l-1.65-.85c-.84-.48-1.83-1.09-2.84-1.79s-2-1.43-3.08-2.2c-4.13-3.08-8.25-6.47-12.31-9.92s-8.08-7-12.05-10.62c-7.95-7.22-15.73-14.67-23.36-22.26-15.25-15.2-29.92-31-43.75-47.44s-26.81-33.55-37.87-51.63a198.84,198.84,0,0,1-14.33-27.9c-3.41-8.48-5.94-17.28-6.4-25.68a4.18,4.18,0,0,1,1.67-.36,7.74,7.74,0,0,1,1.33.05,13.7,13.7,0,0,1,1.6.32,22.09,22.09,0,0,1,3.61,1.27,51.49,51.49,0,0,1,7.69,4.41c2.56,1.74,5.1,3.68,7.59,5.72,5,4.11,9.81,8.61,14.52,13.28s9.32,9.52,13.87,14.45l22.78,24.71L86.12,383.69c-1.87-5.75-3.7-11.63-5.45-17.47s-3.42-11.73-5-17.61-3-11.75-4.19-17.57c-.58-2.89-1.09-5.79-1.42-8.54l-.12-1-.07-1a.92.92,0,0,1,0-.16,29.06,29.06,0,0,1,3.93-.15,21.91,21.91,0,0,1,8.07,1.89c5.15,2.3,9.9,6.78,14,12.06a88.3,88.3,0,0,1,5.83,8.46c1.83,2.95,3.55,6,5.17,9.19,3.27,6.3,6.22,12.87,9,19.56l12.5,30.54,1.29-33,.92-23.61.44.12a14,14,0,0,1,5.33,3.48,35,35,0,0,1,4.95,6.3,68.28,68.28,0,0,1,4.1,7.74,122.63,122.63,0,0,1,6.18,17.31c1.7,6,3.11,12.15,4.37,18.35l.15.77.28.63c2.75,6.33,5.57,12.62,8.59,18.83s6.17,12.37,9.42,18.48c.8,1.54,1.63,3.06,2.46,4.58l2.47,4.58c1.7,3,3.37,6.09,5.11,9.12s3.52,6.07,5.38,9.1c1,1.51,1.94,3,3,4.54.51.76,1.1,1.53,1.69,2.31.34.41.62.78,1,1.21l.59.65.41.4.22.2a5,5,0,0,0,.5.41l11.38,8.44L205.25,469c-2-8.19-3.85-16.55-5.42-24.89-.81-4.18-1.56-8.36-2.28-12.54s-1.32-8.39-1.9-12.58c-1.15-8.38-2-16.78-2.29-25.07a112.31,112.31,0,0,1,.2-12.21l.11-1.48.18-1.44.09-.73a31,31,0,0,1,5,6.16,74.91,74.91,0,0,1,4.55,8.22c1.4,2.89,2.68,5.91,3.9,9,4.83,12.31,8.56,25.35,12.09,38.5,1.76,6.59,3.43,13.21,5.27,20,.47,1.7,1,3.4,1.5,5.16q.41,1.32.9,2.73c.18.5.34.95.57,1.5.11.27.2.51.36.84l.21.46.11.23.16.29.32.57.08.15.14.21.29.42a7.75,7.75,0,0,0,.84,1c.46.48.92,1,1.39,1.43.84.75,1.63,1.4,2.44,2.06l2.32,1.72,2.26,1.56c6,4,12,7.49,17.86,11,2.95,1.76,5.85,3.5,8.7,5.26,1.4.88,2.8,1.77,4.1,2.65.7.44,1.24.87,1.86,1.3l.45.32.33.28.68.55,27.6,22.18L283.61,493,278,482.62l-2.52-5c-.84-1.68-1.72-3.34-2.39-5.08l-2.17-5.17c-.7-1.73-1.22-3.51-1.85-5.26l-.91-2.64c-.27-.89-.48-1.79-.73-2.68l-.72-2.68c-.23-.9-.52-1.78-.67-2.69a94.53,94.53,0,0,1-2.37-21.84c0-1.83.16-3.63.23-5.44l.28-2.7.14-1.34.22-1.33c.25-1.77.61-3.51,1-5.22.23-.83.42-1.7.67-2.49l.37-1.19.32-.91.61-1.72-.07-1.35a16,16,0,0,1,1.15-7.58,6.18,6.18,0,0,1,.73-1.19,4.68,4.68,0,0,1,.39-.46.46.46,0,0,0,.07-.07,5.73,5.73,0,0,1,1-.53,6.12,6.12,0,0,1,1.18-.32,4.5,4.5,0,0,1,2.22.22,8.12,8.12,0,0,1,2.62,1.57,24.76,24.76,0,0,1,5.3,6.89c.41.68.78,1.45,1.17,2.2l1.36,2.56,2.54,5,5.15,10.09c3.48,6.72,7,13.44,10.58,20.11,7.2,13.34,14.69,26.55,22.64,39.53a447,447,0,0,0,25.74,38l3.57,4.56c.61.76,1.18,1.53,1.8,2.27l1.9,2.21,7.51,8.68L373.4,548l7.27,8.54c9.62,11.44,19.06,23,27.78,35s16.66,24.33,22.59,37.33a102.28,102.28,0,0,1,6.8,20,100.32,100.32,0,0,1,2.28,20.87l-.07,25.45c0,8.51-.09,17.06.36,25.86s1.55,17.47,2.69,25.92l1.62,11.47,4,19.87,4.93,0,8.22,0ZM241,464.46v0h0Z" transform="translate(-7.12 -183.27)"/><path class="cls-3" d="M538.12,778.33l8.22,0,4.93,0,4-19.87,1.62-11.47c1.14-8.45,2.26-17.1,2.69-25.92s.37-17.35.36-25.86l-.07-25.45a100.32,100.32,0,0,1,2.28-20.87,102.28,102.28,0,0,1,6.8-20c5.93-13,13.9-25.38,22.59-37.33s18.16-23.52,27.78-35L626.6,548l7.34-8.45,7.51-8.68,1.9-2.21c.62-.74,1.19-1.51,1.8-2.27l3.57-4.56a447,447,0,0,0,25.74-38c7.95-13,15.44-26.19,22.64-39.53,3.61-6.67,7.1-13.39,10.58-20.11l5.15-10.09,2.54-5,1.36-2.56c.39-.75.76-1.52,1.17-2.2a24.76,24.76,0,0,1,5.3-6.89,8.12,8.12,0,0,1,2.62-1.57,4.5,4.5,0,0,1,2.22-.22,6.12,6.12,0,0,1,1.18.32,5.73,5.73,0,0,1,1,.53l.07.07a4.68,4.68,0,0,1,.39.46,6.18,6.18,0,0,1,.73,1.19,16,16,0,0,1,1.15,7.58l-.07,1.35.61,1.72.32.91.37,1.19c.25.79.44,1.66.67,2.49.39,1.71.75,3.45,1,5.22l.22,1.33.14,1.34.28,2.7c.07,1.81.23,3.61.23,5.44A94.53,94.53,0,0,1,734,451.38c-.15.91-.44,1.79-.67,2.69l-.72,2.68c-.25.89-.46,1.79-.73,2.68l-.91,2.64c-.63,1.75-1.15,3.53-1.85,5.26l-2.17,5.17c-.67,1.74-1.55,3.4-2.39,5.08l-2.52,5L716.39,493l-16.65,30.75,27.6-22.18L728,501l.33-.28.45-.32c.62-.43,1.16-.86,1.86-1.3,1.3-.88,2.7-1.77,4.1-2.65,2.85-1.76,5.75-3.5,8.7-5.26,5.89-3.52,11.84-7,17.86-11l2.26-1.56,2.32-1.72c.81-.66,1.6-1.31,2.44-2.06.47-.47.93-.95,1.39-1.43a7.75,7.75,0,0,0,.84-1l.29-.42.14-.21.08-.15.32-.57.16-.29.11-.23.21-.46c.16-.33.25-.57.36-.84.23-.55.39-1,.57-1.5q.5-1.41.9-2.73c.55-1.76,1-3.46,1.5-5.16,1.84-6.75,3.51-13.37,5.27-20,3.53-13.15,7.26-26.19,12.09-38.5,1.22-3.06,2.5-6.08,3.9-9a74.91,74.91,0,0,1,4.55-8.22,31,31,0,0,1,5-6.16l.09.73.18,1.44.11,1.48a112.31,112.31,0,0,1,.2,12.21c-.3,8.29-1.14,16.69-2.29,25.07-.58,4.19-1.19,8.39-1.9,12.58s-1.47,8.36-2.28,12.54c-1.57,8.34-3.45,16.7-5.42,24.89l-3.34,13.87,11.38-8.44a5,5,0,0,0,.5-.41l.22-.2.41-.4.59-.65c.38-.43.66-.8,1-1.21.59-.78,1.18-1.55,1.69-2.31,1.06-1.53,2-3,3-4.54q2.79-4.54,5.38-9.1c1.74-3,3.41-6.08,5.11-9.12l2.47-4.58c.83-1.52,1.66-3,2.46-4.58q4.88-9.16,9.42-18.48c3-6.21,5.84-12.5,8.59-18.83l.28-.63.15-.77c1.26-6.2,2.67-12.35,4.37-18.35A122.63,122.63,0,0,1,854.61,363a68.28,68.28,0,0,1,4.1-7.74,35,35,0,0,1,4.95-6.3,14,14,0,0,1,5.33-3.48l.44-.12.92,23.61,1.29,33,12.5-30.54c2.73-6.69,5.68-13.26,9-19.56,1.62-3.16,3.34-6.24,5.17-9.19a88.3,88.3,0,0,1,5.83-8.46c4.13-5.28,8.88-9.76,14-12.06a21.91,21.91,0,0,1,8.07-1.89,29.06,29.06,0,0,1,3.93.15.92.92,0,0,1,0,.16l-.07,1-.12,1c-.33,2.75-.84,5.65-1.42,8.54-1.17,5.82-2.63,11.7-4.19,17.57s-3.24,11.75-5,17.61-3.58,11.72-5.45,17.47l-10.43,31.95,22.78-24.71c4.55-4.93,9.15-9.78,13.87-14.45s9.54-9.17,14.52-13.28c2.49-2,5-4,7.59-5.72a51.49,51.49,0,0,1,7.69-4.41,22.09,22.09,0,0,1,3.61-1.27,13.7,13.7,0,0,1,1.6-.32,7.74,7.74,0,0,1,1.33-.05,4.18,4.18,0,0,1,1.67.36c-.46,8.4-3,17.2-6.4,25.68a198.84,198.84,0,0,1-14.33,27.9c-11.06,18.08-24.09,35.18-37.87,51.63s-28.5,32.24-43.75,47.44c-7.63,7.59-15.41,15-23.36,22.26q-6,5.41-12,10.62c-4.06,3.45-8.18,6.84-12.31,9.92-1,.77-2.07,1.51-3.08,2.2s-2,1.31-2.84,1.79l-1.65.85c-.76.39-1.51.79-2.17,1.21-1.41.82-2.66,1.69-3.92,2.56A132.32,132.32,0,0,0,801.18,567c-8.13,7.75-15.58,15.82-22.93,23.94-14.67,16.26-28.76,32.8-43.2,48.89q-5.4,6-10.89,12l-1.38,1.47-.68.74-.71.81-2.82,3.23-2.81,3.24c-.93,1.09-1.74,2.25-2.62,3.37l-2.57,3.4-1.29,1.7c-.42.58-.8,1.17-1.19,1.76l-4.71,7.06-4.33,7.25c-1.43,2.43-2.68,4.93-4,7.4a267.3,267.3,0,0,0-13.55,30.63c-.48,1.3-1,2.6-1.44,3.92l-1.36,4c-.93,2.62-1.73,5.29-2.58,8s-1.61,5.33-2.34,8c-.37,1.34-.73,2.7-1.07,4.07l-.52,2.06-.37,1.61,0,.13-7.82,22.18,10,0,5,0,1.71-4.69L685.4,760l.14-.38.13-.56.43-1.81.48-1.89c.31-1.27.65-2.54,1-3.81.68-2.54,1.46-5.08,2.22-7.61s1.57-5.06,2.46-7.55l1.29-3.76c.44-1.25.92-2.49,1.38-3.73a254.85,254.85,0,0,1,12.83-28.95c1.27-2.3,2.45-4.66,3.78-6.91l4-6.74,4.34-6.5c.37-.54.72-1.09,1.1-1.62l1.18-1.54,2.35-3.1c.8-1,1.53-2.09,2.38-3.06l2.54-2.91,2.53-2.91.64-.73.7-.75,1.4-1.51q5.61-6,11.08-12.13c14.61-16.25,28.72-32.8,43.2-48.8,7.24-8,14.56-15.88,22.18-23.13a117.18,117.18,0,0,1,11.64-9.88c1-.67,1.95-1.35,2.9-1.9a15.18,15.18,0,0,1,1.39-.77l2-1c1.53-.86,2.84-1.69,4.06-2.53s2.41-1.69,3.56-2.54c4.59-3.41,8.86-6.93,13.09-10.51s8.34-7.23,12.42-10.92q12.21-11.09,23.86-22.71c15.54-15.48,30.48-31.56,44.64-48.39S958.27,432,969.92,413a212.39,212.39,0,0,0,15.41-30,116.54,116.54,0,0,0,5.37-16.53,74,74,0,0,0,2.18-18l0-2.53L991.27,344a20.52,20.52,0,0,0-6.22-5.17,18.67,18.67,0,0,0-8-2.07,22.13,22.13,0,0,0-3.76.14,27.13,27.13,0,0,0-3.39.65,37.27,37.27,0,0,0-6,2.09,65.53,65.53,0,0,0-10,5.68c-3.06,2.07-5.92,4.27-8.68,6.53-3.08,2.53-6,5.15-8.89,7.82.68-2.44,1.35-4.87,2-7.32,1.59-6.06,3.1-12.16,4.36-18.45.62-3.16,1.18-6.34,1.58-9.73l.14-1.27.11-1.33c0-.45.07-.87.08-1.34l0-1.42v-.73l0-.79c0-.55,0-1-.11-1.64s-.18-1.28-.29-1.91a22.09,22.09,0,0,0-.8-2.51L942.23,308l-3.69-.85a62,62,0,0,0-6.29-1.13,44.72,44.72,0,0,0-6.68-.25,36.14,36.14,0,0,0-13.38,3.17,44.2,44.2,0,0,0-11,7.27,67.58,67.58,0,0,0-8.42,9.09,101.58,101.58,0,0,0-6.74,9.79c-.88,1.43-1.72,2.88-2.54,4.32l0-.57-.16-4-3.42-1.86-.3-.16-.17-.09-.32-.15-.53-.24c-.35-.15-.66-.26-1-.38a17.53,17.53,0,0,0-1.9-.54,18.64,18.64,0,0,0-3.76-.49,21.18,21.18,0,0,0-7.2,1,24.38,24.38,0,0,0-6.09,2.94,30.75,30.75,0,0,0-2.57,1.87c-.76.68-1.58,1.34-2.27,2-5.69,5.66-9.13,12-12,18.38a135.28,135.28,0,0,0-6.87,19.3c-1.76,6.23-3.18,12.48-4.45,18.75-2.59,6-5.1,12.12-7.62,18.19-1.26,3.17-2.6,6.29-3.89,9.44s-2.63,6.27-4,9.39c-.9,2.1-1.83,4.19-2.76,6.26q1.75-8.83,3.31-17.74c.72-4.29,1.37-8.59,2-12.92s1.09-8.7,1.5-13.11.61-8.89.59-13.5l0-1.73-.08-1.77c0-.59,0-1.17-.1-1.77l-.18-1.81a40.34,40.34,0,0,0-1.47-7.64l-1.31-4.59-5-.13h0a18.5,18.5,0,0,0-8.11,1.54,24.12,24.12,0,0,0-6.12,3.89,36.44,36.44,0,0,0-4.42,4.59,53.17,53.17,0,0,0-3.48,4.79,88,88,0,0,0-5.43,9.79c-1.59,3.28-3,6.59-4.31,9.9-5.21,13.27-9,26.69-12.6,40-1.79,6.67-3.48,13.37-5.25,19.86-.45,1.61-.9,3.21-1.37,4.73-.23.76-.47,1.48-.71,2.16-.12.31-.24.67-.34.91,0,.09-.09.2-.12.28l-.35.35-1.49,1.26-1.82,1.35-2,1.35c-4.1,2.74-8.48,5.39-12.92,8.05l1.74-4.15c.78-1.93,1.38-3.93,2.08-5.89l1-3c.3-1,.55-2,.83-3l.82-3c.26-1,.57-2,.75-3.05a108.67,108.67,0,0,0,2.71-25.11c0-2.12-.17-4.25-.27-6.37l-.33-3.2-.18-1.59-.25-1.6c-.3-2.13-.74-4.26-1.23-6.39-.29-1.08-.53-2.13-.87-3.22l-.51-1.64-.1-.3a34.88,34.88,0,0,0-.36-5.52,25.42,25.42,0,0,0-2.25-7.44,20.24,20.24,0,0,0-2.23-3.61,20,20,0,0,0-1.44-1.67l-.86-.84-.11-.1-.33-.28-.31-.23-.51-.37a19.72,19.72,0,0,0-8.16-3.22,18.61,18.61,0,0,0-8.9.82,22.28,22.28,0,0,0-7.09,4.08,31.82,31.82,0,0,0-4.94,5.25,48,48,0,0,0-3.61,5.54c-.55.94-1,1.86-1.48,2.78l-1.29,2.43-2.59,5.08-5.11,10c-3.44,6.65-6.89,13.3-10.46,19.87-7.1,13.16-14.46,26.15-22.25,38.85a432.9,432.9,0,0,1-24.89,36.76l-3.39,4.33c-.57.72-1.12,1.45-1.7,2.16l-1.79,2.07-7.27,8.4-7.47,8.6-7.37,8.66c-9.76,11.6-19.37,23.37-28.4,35.75s-17.47,25.43-24,39.85a115.74,115.74,0,0,0-7.7,22.69,114,114,0,0,0-2.62,24l.05,25.49c0,8.48.06,16.92-.37,25.08S544,736.64,542.85,745l-3.58,25.18ZM759,464.45h0v0Z" transform="translate(-7.12 -183.27)"/><path class="cls-1" d="M629.15,205.36C556.66,158.45,505.61,238.84,500,248.2c-5.61-9.36-56.66-89.75-129.15-42.84-76.91,49.76-73.89,146.27,15.07,229.2,78.9,73.54,108,124.55,113.56,135.16l.52,1,.52-1c5.58-10.61,34.66-61.62,113.56-135.16C703,351.63,706.06,255.12,629.15,205.36Z" transform="translate(-7.12 -183.27)"/><path class="cls-2" d="M460.73,770.19,457.15,745c-1.14-8.37-2.21-16.59-2.61-24.74s-.37-16.6-.37-25.08l.05-25.49a114,114,0,0,0-2.62-24,115.74,115.74,0,0,0-7.7-22.69c-6.58-14.42-15-27.46-24-39.85s-18.64-24.15-28.4-35.75l-7.37-8.66-7.47-8.6-7.27-8.4-1.79-2.07c-.58-.71-1.13-1.44-1.7-2.16l-3.39-4.33a432.9,432.9,0,0,1-24.89-36.76c-7.79-12.7-15.15-25.69-22.25-38.85-3.57-6.57-7-13.22-10.46-19.87l-5.11-10-2.59-5.08-1.29-2.43c-.48-.92-.93-1.84-1.48-2.78a48,48,0,0,0-3.61-5.54,31.82,31.82,0,0,0-4.94-5.25,22.28,22.28,0,0,0-7.09-4.08,18.61,18.61,0,0,0-8.9-.82,19.72,19.72,0,0,0-8.16,3.22l-.51.37-.31.23-.33.28-.11.1-.86.84a20,20,0,0,0-1.44,1.67,20.24,20.24,0,0,0-2.23,3.61,25.42,25.42,0,0,0-2.25,7.44,34.88,34.88,0,0,0-.36,5.52l-.1.3-.51,1.64c-.34,1.09-.58,2.14-.87,3.22-.49,2.13-.93,4.26-1.23,6.39l-.25,1.6-.18,1.59-.33,3.2c-.1,2.12-.27,4.25-.27,6.37a108.67,108.67,0,0,0,2.71,25.11c.18,1,.49,2,.75,3.05l.82,3c.28,1,.53,2,.83,3l1,3c.7,2,1.3,4,2.08,5.89l1.74,4.15c-4.44-2.66-8.82-5.31-12.92-8.05l-2-1.35-1.82-1.35-1.49-1.26-.35-.35-.12-.28c-.1-.24-.22-.6-.34-.91-.24-.68-.48-1.4-.71-2.16-.47-1.52-.92-3.12-1.37-4.73-1.77-6.49-3.46-13.19-5.25-19.86-3.59-13.36-7.39-26.78-12.6-40-1.31-3.31-2.72-6.62-4.31-9.9a88,88,0,0,0-5.43-9.79,53.17,53.17,0,0,0-3.48-4.79,36.44,36.44,0,0,0-4.42-4.59,24.12,24.12,0,0,0-6.12-3.89,18.5,18.5,0,0,0-8.11-1.54h0l-5,.13-1.31,4.59a40.34,40.34,0,0,0-1.47,7.64l-.18,1.81c0,.6-.06,1.18-.1,1.77l-.08,1.77,0,1.73c0,4.61.19,9.08.59,13.5s.9,8.78,1.5,13.11,1.27,8.63,2,12.92q1.55,8.91,3.31,17.74c-.93-2.07-1.86-4.16-2.76-6.26-1.34-3.12-2.69-6.23-4-9.39s-2.63-6.27-3.89-9.44c-2.52-6.07-5-12.15-7.62-18.19-1.27-6.27-2.69-12.52-4.45-18.75a135.28,135.28,0,0,0-6.87-19.3c-2.92-6.33-6.36-12.72-12.05-18.38-.69-.7-1.51-1.36-2.27-2a30.75,30.75,0,0,0-2.57-1.87,24.38,24.38,0,0,0-6.09-2.94,21.18,21.18,0,0,0-7.2-1,18.64,18.64,0,0,0-3.76.49,17.53,17.53,0,0,0-1.9.54c-.34.12-.65.23-1,.38l-.53.24-.32.15-.17.09-.3.16-3.42,1.86-.16,4,0,.57c-.82-1.44-1.66-2.89-2.54-4.32a101.58,101.58,0,0,0-6.74-9.79,67.58,67.58,0,0,0-8.42-9.09,44.2,44.2,0,0,0-11-7.27,36.14,36.14,0,0,0-13.38-3.17,44.72,44.72,0,0,0-6.68.25,62,62,0,0,0-6.29,1.13l-3.69.85-1.26,3.26a22.09,22.09,0,0,0-.8,2.51c-.11.63-.21,1.27-.29,1.91s-.08,1.09-.11,1.64l0,.79v.73l0,1.42c0,.47.06.89.08,1.34l.11,1.33.14,1.27c.4,3.39,1,6.57,1.58,9.73,1.26,6.29,2.77,12.39,4.36,18.45.65,2.45,1.32,4.88,2,7.32-2.87-2.67-5.81-5.29-8.89-7.82-2.76-2.26-5.62-4.46-8.68-6.53a65.53,65.53,0,0,0-10-5.68,37.27,37.27,0,0,0-6-2.09,27.13,27.13,0,0,0-3.39-.65,22.13,22.13,0,0,0-3.76-.14,18.67,18.67,0,0,0-8,2.07A20.52,20.52,0,0,0,8.73,344l-1.58,1.94,0,2.53a74,74,0,0,0,2.18,18A116.54,116.54,0,0,0,14.67,383a212.39,212.39,0,0,0,15.41,30c11.65,19,25.07,36.58,39.19,53.43s29.1,32.91,44.64,48.39q11.67,11.61,23.86,22.71c4.08,3.69,8.2,7.34,12.42,10.92s8.5,7.1,13.09,10.51c1.15.85,2.32,1.7,3.56,2.54s2.53,1.67,4.06,2.53l2,1a15.18,15.18,0,0,1,1.39.77c1,.55,1.92,1.23,2.9,1.9a117.18,117.18,0,0,1,11.64,9.88c7.62,7.25,14.94,15.15,22.18,23.13,14.48,16,28.59,32.55,43.2,48.8q5.47,6.11,11.08,12.13l1.4,1.51.7.75.64.73,2.53,2.91,2.54,2.91c.85,1,1.58,2,2.38,3.06l2.35,3.1,1.18,1.54c.38.53.73,1.08,1.1,1.62l4.34,6.5,4,6.74c1.33,2.25,2.51,4.61,3.78,6.91a254.85,254.85,0,0,1,12.83,28.95c.46,1.24.94,2.48,1.38,3.73l1.29,3.76c.89,2.49,1.65,5,2.46,7.55s1.54,5.07,2.22,7.61c.36,1.27.7,2.54,1,3.81l.48,1.89.43,1.81.13.56.14.38,4.75,13.06,1.71,4.69,5,0,10,0-7.82-22.18-.05-.13-.37-1.61-.52-2.06c-.34-1.37-.7-2.73-1.07-4.07-.73-2.71-1.54-5.37-2.34-8s-1.65-5.33-2.58-8l-1.36-4c-.46-1.32-1-2.62-1.44-3.92A267.3,267.3,0,0,0,305,693.26c-1.35-2.47-2.6-5-4-7.4l-4.33-7.25-4.71-7.06c-.39-.59-.77-1.18-1.19-1.76l-1.29-1.7-2.57-3.4c-.88-1.12-1.69-2.28-2.62-3.37l-2.81-3.24-2.82-3.23-.71-.81-.68-.74-1.38-1.47q-5.49-5.93-10.89-12c-14.44-16.09-28.53-32.63-43.2-48.89-7.35-8.12-14.8-16.19-22.93-23.94a132.32,132.32,0,0,0-13.2-11.19c-1.26-.87-2.51-1.74-3.92-2.56-.66-.42-1.41-.82-2.17-1.21l-1.65-.85c-.84-.48-1.83-1.09-2.84-1.79s-2-1.43-3.08-2.2c-4.13-3.08-8.25-6.47-12.31-9.92s-8.08-7-12.05-10.62c-7.95-7.22-15.73-14.67-23.36-22.26-15.25-15.2-29.92-31-43.75-47.44s-26.81-33.55-37.87-51.63a198.84,198.84,0,0,1-14.33-27.9c-3.41-8.48-5.94-17.28-6.4-25.68a4.18,4.18,0,0,1,1.67-.36,7.74,7.74,0,0,1,1.33.05,13.7,13.7,0,0,1,1.6.32,22.09,22.09,0,0,1,3.61,1.27,51.49,51.49,0,0,1,7.69,4.41c2.56,1.74,5.1,3.68,7.59,5.72,5,4.11,9.81,8.61,14.52,13.28s9.32,9.52,13.87,14.45l22.78,24.71L86.12,383.69c-1.87-5.75-3.7-11.63-5.45-17.47s-3.42-11.73-5-17.61-3-11.75-4.19-17.57c-.58-2.89-1.09-5.79-1.42-8.54l-.12-1-.07-1a.92.92,0,0,1,0-.16,29.06,29.06,0,0,1,3.93-.15,21.91,21.91,0,0,1,8.07,1.89c5.15,2.3,9.9,6.78,14,12.06a88.3,88.3,0,0,1,5.83,8.46c1.83,2.95,3.55,6,5.17,9.19,3.27,6.3,6.22,12.87,9,19.56l12.5,30.54,1.29-33,.92-23.61.44.12a14,14,0,0,1,5.33,3.48,35,35,0,0,1,4.95,6.3,68.28,68.28,0,0,1,4.1,7.74,122.63,122.63,0,0,1,6.18,17.31c1.7,6,3.11,12.15,4.37,18.35l.15.77.28.63c2.75,6.33,5.57,12.62,8.59,18.83s6.17,12.37,9.42,18.48c.8,1.54,1.63,3.06,2.46,4.58l2.47,4.58c1.7,3,3.37,6.09,5.11,9.12s3.52,6.07,5.38,9.1c1,1.51,1.94,3,3,4.54.51.76,1.1,1.53,1.69,2.31.34.41.62.78,1,1.21l.59.65.41.4.22.2a5,5,0,0,0,.5.41l11.38,8.44L205.25,469c-2-8.19-3.85-16.55-5.42-24.89-.81-4.18-1.56-8.36-2.28-12.54s-1.32-8.39-1.9-12.58c-1.15-8.38-2-16.78-2.29-25.07a112.31,112.31,0,0,1,.2-12.21l.11-1.48.18-1.44.09-.73a31,31,0,0,1,5,6.16,74.91,74.91,0,0,1,4.55,8.22c1.4,2.89,2.68,5.91,3.9,9,4.83,12.31,8.56,25.35,12.09,38.5,1.76,6.59,3.43,13.21,5.27,20,.47,1.7,1,3.4,1.5,5.16q.41,1.32.9,2.73c.18.5.34.95.57,1.5.11.27.2.51.36.84l.21.46.11.23.16.29.32.57.08.15.14.21.29.42a7.75,7.75,0,0,0,.84,1c.46.48.92,1,1.39,1.43.84.75,1.63,1.4,2.44,2.06l2.32,1.72,2.26,1.56c6,4,12,7.49,17.86,11,2.95,1.76,5.85,3.5,8.7,5.26,1.4.88,2.8,1.77,4.1,2.65.7.44,1.24.87,1.86,1.3l.45.32.33.28.68.55,27.6,22.18L283.61,493,278,482.62l-2.52-5c-.84-1.68-1.72-3.34-2.39-5.08l-2.17-5.17c-.7-1.73-1.22-3.51-1.85-5.26l-.91-2.64c-.27-.89-.48-1.79-.73-2.68l-.72-2.68c-.23-.9-.52-1.78-.67-2.69a94.53,94.53,0,0,1-2.37-21.84c0-1.83.16-3.63.23-5.44l.28-2.7.14-1.34.22-1.33c.25-1.77.61-3.51,1-5.22.23-.83.42-1.7.67-2.49l.37-1.19.32-.91.61-1.72-.07-1.35a16,16,0,0,1,1.15-7.58,6.18,6.18,0,0,1,.73-1.19,4.68,4.68,0,0,1,.39-.46.46.46,0,0,0,.07-.07,5.73,5.73,0,0,1,1-.53,6.12,6.12,0,0,1,1.18-.32,4.5,4.5,0,0,1,2.22.22,8.12,8.12,0,0,1,2.62,1.57,24.76,24.76,0,0,1,5.3,6.89c.41.68.78,1.45,1.17,2.2l1.36,2.56,2.54,5,5.15,10.09c3.48,6.72,7,13.44,10.58,20.11,7.2,13.34,14.69,26.55,22.64,39.53a447,447,0,0,0,25.74,38l3.57,4.56c.61.76,1.18,1.53,1.8,2.27l1.9,2.21,7.51,8.68L373.4,548l7.27,8.54c9.62,11.44,19.06,23,27.78,35s16.66,24.33,22.59,37.33a102.28,102.28,0,0,1,6.8,20,100.32,100.32,0,0,1,2.28,20.87l-.07,25.45c0,8.51-.09,17.06.36,25.86s1.55,17.47,2.69,25.92l1.62,11.47,4,19.87,4.93,0,8.22,0ZM241,464.46v0h0Z" transform="translate(-7.12 -183.27)"/><path class="cls-3" d="M538.12,778.33l8.22,0,4.93,0,4-19.87,1.62-11.47c1.14-8.45,2.26-17.1,2.69-25.92s.37-17.35.36-25.86l-.07-25.45a100.32,100.32,0,0,1,2.28-20.87,102.28,102.28,0,0,1,6.8-20c5.93-13,13.9-25.38,22.59-37.33s18.16-23.52,27.78-35L626.6,548l7.34-8.45,7.51-8.68,1.9-2.21c.62-.74,1.19-1.51,1.8-2.27l3.57-4.56a447,447,0,0,0,25.74-38c7.95-13,15.44-26.19,22.64-39.53,3.61-6.67,7.1-13.39,10.58-20.11l5.15-10.09,2.54-5,1.36-2.56c.39-.75.76-1.52,1.17-2.2a24.76,24.76,0,0,1,5.3-6.89,8.12,8.12,0,0,1,2.62-1.57,4.5,4.5,0,0,1,2.22-.22,6.12,6.12,0,0,1,1.18.32,5.73,5.73,0,0,1,1,.53l.07.07a4.68,4.68,0,0,1,.39.46,6.18,6.18,0,0,1,.73,1.19,16,16,0,0,1,1.15,7.58l-.07,1.35.61,1.72.32.91.37,1.19c.25.79.44,1.66.67,2.49.39,1.71.75,3.45,1,5.22l.22,1.33.14,1.34.28,2.7c.07,1.81.23,3.61.23,5.44A94.53,94.53,0,0,1,734,451.38c-.15.91-.44,1.79-.67,2.69l-.72,2.68c-.25.89-.46,1.79-.73,2.68l-.91,2.64c-.63,1.75-1.15,3.53-1.85,5.26l-2.17,5.17c-.67,1.74-1.55,3.4-2.39,5.08l-2.52,5L716.39,493l-16.65,30.75,27.6-22.18L728,501l.33-.28.45-.32c.62-.43,1.16-.86,1.86-1.3,1.3-.88,2.7-1.77,4.1-2.65,2.85-1.76,5.75-3.5,8.7-5.26,5.89-3.52,11.84-7,17.86-11l2.26-1.56,2.32-1.72c.81-.66,1.6-1.31,2.44-2.06.47-.47.93-.95,1.39-1.43a7.75,7.75,0,0,0,.84-1l.29-.42.14-.21.08-.15.32-.57.16-.29.11-.23.21-.46c.16-.33.25-.57.36-.84.23-.55.39-1,.57-1.5q.5-1.41.9-2.73c.55-1.76,1-3.46,1.5-5.16,1.84-6.75,3.51-13.37,5.27-20,3.53-13.15,7.26-26.19,12.09-38.5,1.22-3.06,2.5-6.08,3.9-9a74.91,74.91,0,0,1,4.55-8.22,31,31,0,0,1,5-6.16l.09.73.18,1.44.11,1.48a112.31,112.31,0,0,1,.2,12.21c-.3,8.29-1.14,16.69-2.29,25.07-.58,4.19-1.19,8.39-1.9,12.58s-1.47,8.36-2.28,12.54c-1.57,8.34-3.45,16.7-5.42,24.89l-3.34,13.87,11.38-8.44a5,5,0,0,0,.5-.41l.22-.2.41-.4.59-.65c.38-.43.66-.8,1-1.21.59-.78,1.18-1.55,1.69-2.31,1.06-1.53,2-3,3-4.54q2.79-4.54,5.38-9.1c1.74-3,3.41-6.08,5.11-9.12l2.47-4.58c.83-1.52,1.66-3,2.46-4.58q4.88-9.16,9.42-18.48c3-6.21,5.84-12.5,8.59-18.83l.28-.63.15-.77c1.26-6.2,2.67-12.35,4.37-18.35A122.63,122.63,0,0,1,854.61,363a68.28,68.28,0,0,1,4.1-7.74,35,35,0,0,1,4.95-6.3,14,14,0,0,1,5.33-3.48l.44-.12.92,23.61,1.29,33,12.5-30.54c2.73-6.69,5.68-13.26,9-19.56,1.62-3.16,3.34-6.24,5.17-9.19a88.3,88.3,0,0,1,5.83-8.46c4.13-5.28,8.88-9.76,14-12.06a21.91,21.91,0,0,1,8.07-1.89,29.06,29.06,0,0,1,3.93.15.92.92,0,0,1,0,.16l-.07,1-.12,1c-.33,2.75-.84,5.65-1.42,8.54-1.17,5.82-2.63,11.7-4.19,17.57s-3.24,11.75-5,17.61-3.58,11.72-5.45,17.47l-10.43,31.95,22.78-24.71c4.55-4.93,9.15-9.78,13.87-14.45s9.54-9.17,14.52-13.28c2.49-2,5-4,7.59-5.72a51.49,51.49,0,0,1,7.69-4.41,22.09,22.09,0,0,1,3.61-1.27,13.7,13.7,0,0,1,1.6-.32,7.74,7.74,0,0,1,1.33-.05,4.18,4.18,0,0,1,1.67.36c-.46,8.4-3,17.2-6.4,25.68a198.84,198.84,0,0,1-14.33,27.9c-11.06,18.08-24.09,35.18-37.87,51.63s-28.5,32.24-43.75,47.44c-7.63,7.59-15.41,15-23.36,22.26q-6,5.41-12,10.62c-4.06,3.45-8.18,6.84-12.31,9.92-1,.77-2.07,1.51-3.08,2.2s-2,1.31-2.84,1.79l-1.65.85c-.76.39-1.51.79-2.17,1.21-1.41.82-2.66,1.69-3.92,2.56A132.32,132.32,0,0,0,801.18,567c-8.13,7.75-15.58,15.82-22.93,23.94-14.67,16.26-28.76,32.8-43.2,48.89q-5.4,6-10.89,12l-1.38,1.47-.68.74-.71.81-2.82,3.23-2.81,3.24c-.93,1.09-1.74,2.25-2.62,3.37l-2.57,3.4-1.29,1.7c-.42.58-.8,1.17-1.19,1.76l-4.71,7.06-4.33,7.25c-1.43,2.43-2.68,4.93-4,7.4a267.3,267.3,0,0,0-13.55,30.63c-.48,1.3-1,2.6-1.44,3.92l-1.36,4c-.93,2.62-1.73,5.29-2.58,8s-1.61,5.33-2.34,8c-.37,1.34-.73,2.7-1.07,4.07l-.52,2.06-.37,1.61,0,.13-7.82,22.18,10,0,5,0,1.71-4.69L685.4,760l.14-.38.13-.56.43-1.81.48-1.89c.31-1.27.65-2.54,1-3.81.68-2.54,1.46-5.08,2.22-7.61s1.57-5.06,2.46-7.55l1.29-3.76c.44-1.25.92-2.49,1.38-3.73a254.85,254.85,0,0,1,12.83-28.95c1.27-2.3,2.45-4.66,3.78-6.91l4-6.74,4.34-6.5c.37-.54.72-1.09,1.1-1.62l1.18-1.54,2.35-3.1c.8-1,1.53-2.09,2.38-3.06l2.54-2.91,2.53-2.91.64-.73.7-.75,1.4-1.51q5.61-6,11.08-12.13c14.61-16.25,28.72-32.8,43.2-48.8,7.24-8,14.56-15.88,22.18-23.13a117.18,117.18,0,0,1,11.64-9.88c1-.67,1.95-1.35,2.9-1.9a15.18,15.18,0,0,1,1.39-.77l2-1c1.53-.86,2.84-1.69,4.06-2.53s2.41-1.69,3.56-2.54c4.59-3.41,8.86-6.93,13.09-10.51s8.34-7.23,12.42-10.92q12.21-11.09,23.86-22.71c15.54-15.48,30.48-31.56,44.64-48.39S958.27,432,969.92,413a212.39,212.39,0,0,0,15.41-30,116.54,116.54,0,0,0,5.37-16.53,74,74,0,0,0,2.18-18l0-2.53L991.27,344a20.52,20.52,0,0,0-6.22-5.17,18.67,18.67,0,0,0-8-2.07,22.13,22.13,0,0,0-3.76.14,27.13,27.13,0,0,0-3.39.65,37.27,37.27,0,0,0-6,2.09,65.53,65.53,0,0,0-10,5.68c-3.06,2.07-5.92,4.27-8.68,6.53-3.08,2.53-6,5.15-8.89,7.82.68-2.44,1.35-4.87,2-7.32,1.59-6.06,3.1-12.16,4.36-18.45.62-3.16,1.18-6.34,1.58-9.73l.14-1.27.11-1.33c0-.45.07-.87.08-1.34l0-1.42v-.73l0-.79c0-.55,0-1-.11-1.64s-.18-1.28-.29-1.91a22.09,22.09,0,0,0-.8-2.51L942.23,308l-3.69-.85a62,62,0,0,0-6.29-1.13,44.72,44.72,0,0,0-6.68-.25,36.14,36.14,0,0,0-13.38,3.17,44.2,44.2,0,0,0-11,7.27,67.58,67.58,0,0,0-8.42,9.09,101.58,101.58,0,0,0-6.74,9.79c-.88,1.43-1.72,2.88-2.54,4.32l0-.57-.16-4-3.42-1.86-.3-.16-.17-.09-.32-.15-.53-.24c-.35-.15-.66-.26-1-.38a17.53,17.53,0,0,0-1.9-.54,18.64,18.64,0,0,0-3.76-.49,21.18,21.18,0,0,0-7.2,1,24.38,24.38,0,0,0-6.09,2.94,30.75,30.75,0,0,0-2.57,1.87c-.76.68-1.58,1.34-2.27,2-5.69,5.66-9.13,12-12,18.38a135.28,135.28,0,0,0-6.87,19.3c-1.76,6.23-3.18,12.48-4.45,18.75-2.59,6-5.1,12.12-7.62,18.19-1.26,3.17-2.6,6.29-3.89,9.44s-2.63,6.27-4,9.39c-.9,2.1-1.83,4.19-2.76,6.26q1.75-8.83,3.31-17.74c.72-4.29,1.37-8.59,2-12.92s1.09-8.7,1.5-13.11.61-8.89.59-13.5l0-1.73-.08-1.77c0-.59,0-1.17-.1-1.77l-.18-1.81a40.34,40.34,0,0,0-1.47-7.64l-1.31-4.59-5-.13h0a18.5,18.5,0,0,0-8.11,1.54,24.12,24.12,0,0,0-6.12,3.89,36.44,36.44,0,0,0-4.42,4.59,53.17,53.17,0,0,0-3.48,4.79,88,88,0,0,0-5.43,9.79c-1.59,3.28-3,6.59-4.31,9.9-5.21,13.27-9,26.69-12.6,40-1.79,6.67-3.48,13.37-5.25,19.86-.45,1.61-.9,3.21-1.37,4.73-.23.76-.47,1.48-.71,2.16-.12.31-.24.67-.34.91,0,.09-.09.2-.12.28l-.35.35-1.49,1.26-1.82,1.35-2,1.35c-4.1,2.74-8.48,5.39-12.92,8.05l1.74-4.15c.78-1.93,1.38-3.93,2.08-5.89l1-3c.3-1,.55-2,.83-3l.82-3c.26-1,.57-2,.75-3.05a108.67,108.67,0,0,0,2.71-25.11c0-2.12-.17-4.25-.27-6.37l-.33-3.2-.18-1.59-.25-1.6c-.3-2.13-.74-4.26-1.23-6.39-.29-1.08-.53-2.13-.87-3.22l-.51-1.64-.1-.3a34.88,34.88,0,0,0-.36-5.52,25.42,25.42,0,0,0-2.25-7.44,20.24,20.24,0,0,0-2.23-3.61,20,20,0,0,0-1.44-1.67l-.86-.84-.11-.1-.33-.28-.31-.23-.51-.37a19.72,19.72,0,0,0-8.16-3.22,18.61,18.61,0,0,0-8.9.82,22.28,22.28,0,0,0-7.09,4.08,31.82,31.82,0,0,0-4.94,5.25,48,48,0,0,0-3.61,5.54c-.55.94-1,1.86-1.48,2.78l-1.29,2.43-2.59,5.08-5.11,10c-3.44,6.65-6.89,13.3-10.46,19.87-7.1,13.16-14.46,26.15-22.25,38.85a432.9,432.9,0,0,1-24.89,36.76l-3.39,4.33c-.57.72-1.12,1.45-1.7,2.16l-1.79,2.07-7.27,8.4-7.47,8.6-7.37,8.66c-9.76,11.6-19.37,23.37-28.4,35.75s-17.47,25.43-24,39.85a115.74,115.74,0,0,0-7.7,22.69,114,114,0,0,0-2.62,24l.05,25.49c0,8.48.06,16.92-.37,25.08S544,736.64,542.85,745l-3.58,25.18ZM759,464.45h0v0Z" transform="translate(-7.12 -183.27)"/></svg>