<?xml version="1.0" encoding="UTF-8"?>
<!DOCTYPE svg PUBLIC "-//W3C//DTD SVG 1.1//EN" "http://www.w3.org/Graphics/SVG/1.1/DTD/svg11.dtd">
<!-- Creator: CorelDRAW -->
<svg xmlns="http://www.w3.org/2000/svg" xml:space="preserve" width="1in" height="0.247031in" version="1.1" style="shape-rendering:geometricPrecision; text-rendering:geometricPrecision; image-rendering:optimizeQuality; fill-rule:evenodd; clip-rule:evenodd"
viewBox="0 0 1024.47 253.08"
 xmlns:xlink="http://www.w3.org/1999/xlink"
 xmlns:xodm="http://www.corel.com/coreldraw/odm/2003">
 <defs>
  <style type="text/css">
   <![CDATA[
    .fil0 {fill:black;fill-rule:nonzero}
    .fil1 {fill:#38B6FF;fill-rule:nonzero}
   ]]>
  </style>
 </defs>
 <g id="Layer_x0020_1">
  <metadata id="CorelCorpID_0Corel-Layer"/>
  <g id="_1445964236288">
   <path class="fil0" d="M809.7 191.91c4.31,0 8.01,-3.68 8.01,-8.01 0,-4.31 -3.71,-8.01 -8.01,-8.01 -4.33,0 -8.01,3.71 -8.01,8.01 0,4.33 3.68,8.01 8.01,8.01zm0 0z"/>
   <g>
    <g>
     <g>
      <path class="fil0" d="M854.85 191.91c13.06,0 22.94,-8.01 25.64,-19.35l-12.2 0c-2.34,5.05 -7.42,8.49 -13.44,8.49 -8.28,0 -14.81,-6.41 -14.81,-14.79 0,-8.39 6.53,-14.81 14.81,-14.81 6.03,0 11.1,3.44 13.44,8.52l12.2 0c-2.7,-11.37 -12.58,-19.38 -25.64,-19.38 -15.31,0 -26.53,11.22 -26.53,25.67 0,14.43 11.22,25.65 26.53,25.65zm0 0z"/>
     </g>
    </g>
   </g>
   <g>
    <g>
     <g>
      <path class="fil0" d="M914.56 191.91c15.29,0 26.53,-11.22 26.53,-25.65 0,-14.45 -11.24,-25.67 -26.53,-25.67 -15.31,0 -26.53,11.22 -26.53,25.67 0,14.43 11.22,25.65 26.53,25.65zm0 -10.86c-8.39,0 -14.81,-6.53 -14.81,-14.79 0,-8.28 6.41,-14.81 14.81,-14.81 8.26,0 14.81,6.53 14.81,14.81 0,8.26 -6.55,14.79 -14.81,14.79zm0 0z"/>
     </g>
    </g>
   </g>
   <g>
    <g>
     <g>
      <path class="fil0" d="M1006.6 140.59c-6.44,0 -11.72,2.97 -14.95,7.78 -3.21,-4.69 -8.26,-7.78 -13.81,-7.78 -4.93,0 -9.14,2.35 -12.23,6.05l0 -5.07 -11.72 0 0 49.35 11.72 0 0 -30.1c0,-4.83 3.47,-9.38 8.76,-9.38 5.07,0 8.9,4.19 8.9,9.38l0 30.1 11.72 0 0 -30.1c0,-4.83 3.44,-9.38 8.76,-9.38 5.05,0 8.87,4.19 8.87,9.38l0 30.1 11.72 0 0 -31.34c0,-10.86 -7.27,-19 -17.75,-19zm0 0z"/>
     </g>
    </g>
   </g>
   <g>
    <g>
     <g>
      <path class="fil1" d="M51.2 80.81c-9.83,0 -18.87,3.73 -26.05,9.86l0 -90.67 -25.26 0 0 189.27 25.26 0 0 -64.06c0,-11.43 9.04,-21.01 20.48,-21.01 11.15,0 19.93,8.78 19.93,19.95l0 65.11 25.26 0 0 -67.51c0,-23.14 -17.56,-40.95 -39.62,-40.95zm0 0z"/>
     </g>
    </g>
   </g>
   <g>
    <g>
     <g>
      <path class="fil1" d="M181.97 80.81c-13.83,0 -25.26,6.38 -32.7,16.74l0 -14.61 -25.26 0 0 106.33 25.26 0 0 -53.97c0,-18.59 13.83,-31.1 32.15,-31.1 3.47,0 6.38,0.53 9.04,1.08l0 -23.66c-2.66,-0.53 -5.57,-0.81 -8.49,-0.81zm0 0z"/>
     </g>
    </g>
   </g>
   <g>
    <g>
     <g>
      <path class="fil1" d="M267.81 80.81c-13.54,0 -25.24,5.07 -34.28,13.3l0 -11.17 -25.26 0 0 170.13 25.26 0 0 -74.97c9.04,8.25 20.74,13.3 34.28,13.3 30.05,0 53.97,-24.45 53.97,-55.29 0,-30.83 -23.92,-55.31 -53.97,-55.31zm-3.18 87.2c-17.8,0 -31.89,-14.09 -31.89,-31.89 0,-17.82 14.09,-31.91 31.89,-31.91 17.82,0 31.89,14.09 31.89,31.91 0,17.8 -14.07,31.89 -31.89,31.89zm0 0z"/>
     </g>
    </g>
   </g>
   <g>
    <g>
     <g>
      <path class="fil1" d="M399.11 191.41c28.18,0 49.45,-17.27 55.29,-41.74l-26.32 0c-5.05,10.91 -15.93,18.35 -28.97,18.35 -17.8,0 -31.89,-13.83 -31.89,-31.89 0,-18.09 14.09,-31.91 31.89,-31.91 13.04,0 23.93,7.44 28.97,18.35l26.32 0c-5.84,-24.45 -27.1,-41.74 -55.29,-41.74 -32.96,0 -57.15,24.21 -57.15,55.31 0,31.1 24.19,55.29 57.15,55.29zm0 0z"/>
     </g>
    </g>
   </g>
   <g>
    <g>
     <g>
      <path class="fil1" d="M519.79 191.41c27.92,0 44.66,-15.96 44.66,-41.48l0 -66.98 -24.99 0 0 63.8c0,13.04 -8.23,21.27 -19.67,21.27 -11.43,0 -19.66,-8.23 -19.66,-21.27l0 -63.8 -25 0 0 66.98c0,25.52 16.74,41.48 44.66,41.48zm0 0z"/>
     </g>
    </g>
   </g>
   <g>
    <g>
     <g>
      <path class="fil1" d="M654.55 80.81c-13.83,0 -25.26,6.38 -32.7,16.74l0 -14.61 -25.26 0 0 106.33 25.26 0 0 -53.97c0,-18.59 13.83,-31.1 32.15,-31.1 3.47,0 6.39,0.53 9.04,1.08l0 -23.66c-2.65,-0.53 -5.57,-0.81 -8.49,-0.81zm0 0z"/>
     </g>
    </g>
   </g>
   <g>
    <g>
     <g>
      <path class="fil1" d="M786.39 135.57c-0.55,-31.89 -23.92,-54.76 -56.1,-54.76 -32.42,0 -56.89,23.39 -56.89,55.31 0,31.89 24.18,55.29 57.15,55.29 27.39,0 47.85,-16.22 53.97,-39.35l-25.26 0c-4.52,11.17 -15.14,18.35 -28.71,18.35 -17.8,0 -30.28,-12.49 -31.62,-30.31l87.2 0 0.26 -4.52zm-55.84 -33.49c13.83,0 23.66,7.72 28.18,19.95l-57.68 0c4.79,-11.96 15.15,-19.95 29.5,-19.95zm0 0z"/>
     </g>
    </g>
   </g>
  </g>
 </g>
</svg>
