<svg xmlns="http://www.w3.org/2000/svg" xmlns:xlink="http://www.w3.org/1999/xlink" width="500" zoomAndPan="magnify" viewBox="0 0 375 374.999991" height="500" preserveAspectRatio="xMidYMid meet" version="1.0"><defs><g/></defs><g fill="#000000" fill-opacity="1"><g transform="translate(257.25733, 203.27445)"><g><path d="M 3.367188 0.238281 C 4.410156 0.238281 5.304688 -0.65625 5.304688 -1.699219 C 5.304688 -2.742188 4.410156 -3.636719 3.367188 -3.636719 C 2.324219 -3.636719 1.429688 -2.742188 1.429688 -1.699219 C 1.429688 -0.65625 2.324219 0.238281 3.367188 0.238281 Z M 3.367188 0.238281 "/></g></g></g><g fill="#000000" fill-opacity="1"><g transform="translate(263.991887, 203.27445)"><g><path d="M 7.539062 0.238281 C 10.699219 0.238281 13.082031 -1.699219 13.738281 -4.441406 L 10.789062 -4.441406 C 10.222656 -3.21875 9 -2.382812 7.539062 -2.382812 C 5.542969 -2.382812 3.964844 -3.933594 3.964844 -5.960938 C 3.964844 -7.988281 5.542969 -9.535156 7.539062 -9.535156 C 9 -9.535156 10.222656 -8.703125 10.789062 -7.480469 L 13.738281 -7.480469 C 13.082031 -10.222656 10.699219 -12.160156 7.539062 -12.160156 C 3.84375 -12.160156 1.132812 -9.445312 1.132812 -5.960938 C 1.132812 -2.472656 3.84375 0.238281 7.539062 0.238281 Z M 7.539062 0.238281 "/></g></g></g><g fill="#000000" fill-opacity="1"><g transform="translate(278.414565, 203.27445)"><g><path d="M 7.539062 0.238281 C 11.234375 0.238281 13.945312 -2.472656 13.945312 -5.960938 C 13.945312 -9.445312 11.234375 -12.160156 7.539062 -12.160156 C 3.84375 -12.160156 1.132812 -9.445312 1.132812 -5.960938 C 1.132812 -2.472656 3.84375 0.238281 7.539062 0.238281 Z M 7.539062 -2.382812 C 5.511719 -2.382812 3.964844 -3.964844 3.964844 -5.960938 C 3.964844 -7.957031 5.511719 -9.535156 7.539062 -9.535156 C 9.535156 -9.535156 11.117188 -7.957031 11.117188 -5.960938 C 11.117188 -3.964844 9.535156 -2.382812 7.539062 -2.382812 Z M 7.539062 -2.382812 "/></g></g></g><g fill="#000000" fill-opacity="1"><g transform="translate(293.492824, 203.27445)"><g><path d="M 14.691406 -12.160156 C 13.140625 -12.160156 11.859375 -11.445312 11.085938 -10.28125 C 10.3125 -11.414062 9.089844 -12.160156 7.75 -12.160156 C 6.554688 -12.160156 5.542969 -11.59375 4.796875 -10.699219 L 4.796875 -11.921875 L 1.96875 -11.921875 L 1.96875 0 L 4.796875 0 L 4.796875 -7.273438 C 4.796875 -8.433594 5.632812 -9.535156 6.914062 -9.535156 C 8.136719 -9.535156 9.058594 -8.523438 9.058594 -7.273438 L 9.058594 0 L 11.890625 0 L 11.890625 -7.273438 C 11.890625 -8.433594 12.726562 -9.535156 14.007812 -9.535156 C 15.230469 -9.535156 16.152344 -8.523438 16.152344 -7.273438 L 16.152344 0 L 18.984375 0 L 18.984375 -7.570312 C 18.984375 -10.191406 17.226562 -12.160156 14.691406 -12.160156 Z M 14.691406 -12.160156 "/></g></g></g><g fill="#38b6ff" fill-opacity="1"><g transform="translate(60.775342, 202.874987)"><g><path d="M 16.628906 -26.199219 C 14.253906 -26.199219 12.070312 -25.296875 10.335938 -23.820312 L 10.335938 -45.71875 L 4.238281 -45.71875 L 4.238281 0 L 10.335938 0 L 10.335938 -15.472656 C 10.335938 -18.234375 12.519531 -20.546875 15.28125 -20.546875 C 17.980469 -20.546875 20.097656 -18.429688 20.097656 -15.730469 L 20.097656 0 L 26.199219 0 L 26.199219 -16.308594 C 26.199219 -21.894531 21.960938 -26.199219 16.628906 -26.199219 Z M 16.628906 -26.199219 "/></g></g></g><g fill="#38b6ff" fill-opacity="1"><g transform="translate(90.75862, 202.874987)"><g><path d="M 18.234375 -26.199219 C 14.898438 -26.199219 12.136719 -24.65625 10.335938 -22.152344 L 10.335938 -25.683594 L 4.238281 -25.683594 L 4.238281 0 L 10.335938 0 L 10.335938 -13.035156 C 10.335938 -17.527344 13.675781 -20.546875 18.105469 -20.546875 C 18.941406 -20.546875 19.648438 -20.417969 20.289062 -20.289062 L 20.289062 -26.003906 C 19.648438 -26.132812 18.941406 -26.199219 18.234375 -26.199219 Z M 18.234375 -26.199219 "/></g></g></g><g fill="#38b6ff" fill-opacity="1"><g transform="translate(111.111295, 202.874987)"><g><path d="M 18.621094 -26.199219 C 15.347656 -26.199219 12.519531 -24.976562 10.335938 -22.988281 L 10.335938 -25.683594 L 4.238281 -25.683594 L 4.238281 15.410156 L 10.335938 15.410156 L 10.335938 -2.695312 C 12.519531 -0.707031 15.347656 0.515625 18.621094 0.515625 C 25.875 0.515625 31.65625 -5.394531 31.65625 -12.84375 C 31.65625 -20.289062 25.875 -26.199219 18.621094 -26.199219 Z M 17.851562 -5.136719 C 13.546875 -5.136719 10.144531 -8.539062 10.144531 -12.84375 C 10.144531 -17.144531 13.546875 -20.546875 17.851562 -20.546875 C 22.152344 -20.546875 25.554688 -17.144531 25.554688 -12.84375 C 25.554688 -8.539062 22.152344 -5.136719 17.851562 -5.136719 Z M 17.851562 -5.136719 "/></g></g></g><g fill="#38b6ff" fill-opacity="1"><g transform="translate(145.203631, 202.874987)"><g><path d="M 16.246094 0.515625 C 23.050781 0.515625 28.1875 -3.660156 29.601562 -9.566406 L 23.242188 -9.566406 C 22.023438 -6.933594 19.390625 -5.136719 16.246094 -5.136719 C 11.941406 -5.136719 8.539062 -8.476562 8.539062 -12.84375 C 8.539062 -17.207031 11.941406 -20.546875 16.246094 -20.546875 C 19.390625 -20.546875 22.023438 -18.75 23.242188 -16.117188 L 29.601562 -16.117188 C 28.1875 -22.023438 23.050781 -26.199219 16.246094 -26.199219 C 8.28125 -26.199219 2.441406 -20.355469 2.441406 -12.84375 C 2.441406 -5.328125 8.28125 0.515625 16.246094 0.515625 Z M 16.246094 0.515625 "/></g></g></g><g fill="#38b6ff" fill-opacity="1"><g transform="translate(176.278378, 202.874987)"><g><path d="M 14.320312 0.515625 C 21.0625 0.515625 25.105469 -3.339844 25.105469 -9.503906 L 25.105469 -25.683594 L 19.070312 -25.683594 L 19.070312 -10.273438 C 19.070312 -7.128906 17.078125 -5.136719 14.320312 -5.136719 C 11.558594 -5.136719 9.566406 -7.128906 9.566406 -10.273438 L 9.566406 -25.683594 L 3.53125 -25.683594 L 3.53125 -9.503906 C 3.53125 -3.339844 7.578125 0.515625 14.320312 0.515625 Z M 14.320312 0.515625 "/></g></g></g><g fill="#38b6ff" fill-opacity="1"><g transform="translate(204.913382, 202.874987)"><g><path d="M 18.234375 -26.199219 C 14.898438 -26.199219 12.136719 -24.65625 10.335938 -22.152344 L 10.335938 -25.683594 L 4.238281 -25.683594 L 4.238281 0 L 10.335938 0 L 10.335938 -13.035156 C 10.335938 -17.527344 13.675781 -20.546875 18.105469 -20.546875 C 18.941406 -20.546875 19.648438 -20.417969 20.289062 -20.289062 L 20.289062 -26.003906 C 19.648438 -26.132812 18.941406 -26.199219 18.234375 -26.199219 Z M 18.234375 -26.199219 "/></g></g></g><g fill="#38b6ff" fill-opacity="1"><g transform="translate(225.266058, 202.874987)"><g><path d="M 29.730469 -12.96875 C 29.601562 -20.675781 23.949219 -26.199219 16.179688 -26.199219 C 8.347656 -26.199219 2.441406 -20.546875 2.441406 -12.84375 C 2.441406 -5.136719 8.28125 0.515625 16.246094 0.515625 C 22.859375 0.515625 27.800781 -3.402344 29.28125 -8.988281 L 23.179688 -8.988281 C 22.089844 -6.292969 19.519531 -4.558594 16.246094 -4.558594 C 11.941406 -4.558594 8.925781 -7.578125 8.605469 -11.878906 L 29.664062 -11.878906 Z M 16.246094 -21.0625 C 19.582031 -21.0625 21.960938 -19.199219 23.050781 -16.246094 L 9.117188 -16.246094 C 10.273438 -19.132812 12.777344 -21.0625 16.246094 -21.0625 Z M 16.246094 -21.0625 "/></g></g></g></svg>